{
	"asset":{
		"generator":"Khronos glTF Blender I/O v4.0.44",
		"version":"2.0"
	},
	"scene":0,
	"scenes":[
		{
			"name":"Scene",
			"nodes":[
				0,
				1,
				2,
				3,
				4,
				5,
				6,
				7,
				8,
				9,
				10,
				11,
				12,
				13,
				14
			]
		}
	],
	"nodes":[
		{
			"name":"Empty",
			"rotation":[
				0.4835360646247864,
				0.3368716239929199,
				-0.20870362222194672,
				0.7804826498031616
			],
			"translation":[
				-1.891373634338379,
				7.587629795074463,
				-3.42893123626709
			]
		},
		{
			"mesh":0,
			"name":"door",
			"translation":[
				0,
				-0.017621181905269623,
				0
			]
		},
		{
			"mesh":1,
			"name":"frame",
			"scale":[
				5.535569190979004,
				1,
				1
			],
			"translation":[
				0,
				-0.017621181905269623,
				0
			]
		},
		{
			"name":"transform21"
		},
		{
			"name":"transform22"
		},
		{
			"name":"transform5"
		},
		{
			"name":"transform6"
		},
		{
			"name":"transform12"
		},
		{
			"name":"transform11"
		},
		{
			"name":"transform30"
		},
		{
			"name":"transform29"
		},
		{
			"name":"transform28"
		},
		{
			"name":"transform25"
		},
		{
			"name":"transform27"
		},
		{
			"name":"transform26"
		}
	],
	"animations":[
		{
			"channels":[
				{
					"sampler":0,
					"target":{
						"node":1,
						"path":"translation"
					}
				}
			],
			"name":"CubeAction",
			"samplers":[
				{
					"input":8,
					"interpolation":"LINEAR",
					"output":9
				}
			]
		}
	],
	"materials":[
		{
			"emissiveFactor":[
				1,
				1,
				1
			],
			"emissiveTexture":{
				"index":0
			},
			"name":"BoomBox_Mat.002",
			"normalTexture":{
				"index":1
			},
			"occlusionTexture":{
				"index":2
			},
			"pbrMetallicRoughness":{
				"baseColorTexture":{
					"index":3
				},
				"metallicRoughnessTexture":{
					"index":4
				}
			}
		},
		{
			"emissiveFactor":[
				1,
				1,
				1
			],
			"emissiveTexture":{
				"index":5
			},
			"name":"BoomBox_Mat.003",
			"normalTexture":{
				"index":6
			},
			"occlusionTexture":{
				"index":7
			},
			"pbrMetallicRoughness":{
				"baseColorTexture":{
					"index":8
				},
				"metallicRoughnessTexture":{
					"index":9
				}
			}
		}
	],
	"meshes":[
		{
			"name":"Cube.002",
			"primitives":[
				{
					"attributes":{
						"POSITION":0,
						"NORMAL":1,
						"TEXCOORD_0":2
					},
					"indices":3,
					"material":0
				}
			]
		},
		{
			"name":"Cube.003",
			"primitives":[
				{
					"attributes":{
						"POSITION":4,
						"NORMAL":5,
						"TEXCOORD_0":6
					},
					"indices":7,
					"material":1
				}
			]
		}
	],
	"textures":[
		{
			"sampler":0,
			"source":0
		},
		{
			"sampler":0,
			"source":1
		},
		{
			"sampler":0,
			"source":2
		},
		{
			"sampler":0,
			"source":3
		},
		{
			"sampler":0,
			"source":3
		},
		{
			"sampler":0,
			"source":0
		},
		{
			"sampler":0,
			"source":0
		},
		{
			"sampler":0,
			"source":2
		},
		{
			"sampler":0,
			"source":1
		},
		{
			"sampler":0,
			"source":4
		}
	],
	"images":[
		{
			"mimeType":"image/jpeg",
			"name":"Image_3",
			"uri":"door/Image_3.jpg"
		},
		{
			"mimeType":"image/jpeg",
			"name":"00003-2482601315",
			"uri":"door/00003-2482601315.jpg"
		},
		{
			"mimeType":"image/jpeg",
			"name":"Image_1",
			"uri":"door/Image_1.jpg"
		},
		{
			"mimeType":"image/jpeg",
			"name":"ComfyUI_00033_",
			"uri":"door/ComfyUI_00033_.jpg"
		},
		{
			"mimeType":"image/jpeg",
			"name":"00002-2482601315",
			"uri":"door/00002-2482601315.jpg"
		}
	],
	"accessors":[
		{
			"bufferView":0,
			"componentType":5126,
			"count":24,
			"max":[
				0.055612850934267044,
				0.2191232442855835,
				0.010046456009149551
			],
			"min":[
				-0.055612850934267044,
				0.017621196806430817,
				-0.010046456009149551
			],
			"type":"VEC3"
		},
		{
			"bufferView":1,
			"componentType":5126,
			"count":24,
			"type":"VEC3"
		},
		{
			"bufferView":2,
			"componentType":5126,
			"count":24,
			"type":"VEC2"
		},
		{
			"bufferView":3,
			"componentType":5123,
			"count":36,
			"type":"SCALAR"
		},
		{
			"bufferView":4,
			"componentType":5126,
			"count":64,
			"max":[
				0.012141472660005093,
				0.22666776180267334,
				0.012516822665929794
			],
			"min":[
				-0.011257580481469631,
				0.017621196806430817,
				-0.012516822665929794
			],
			"type":"VEC3"
		},
		{
			"bufferView":5,
			"componentType":5126,
			"count":64,
			"type":"VEC3"
		},
		{
			"bufferView":6,
			"componentType":5126,
			"count":64,
			"type":"VEC2"
		},
		{
			"bufferView":7,
			"componentType":5123,
			"count":132,
			"type":"SCALAR"
		},
		{
			"bufferView":8,
			"componentType":5126,
			"count":31,
			"max":[
				1.24
			],
			"min":[
				0.04
			],
			"type":"SCALAR"
		},
		{
			"bufferView":9,
			"componentType":5126,
			"count":31,
			"type":"VEC3"
		}
	],
	"bufferViews":[
		{
			"buffer":0,
			"byteLength":288,
			"byteOffset":0,
			"target":34962
		},
		{
			"buffer":0,
			"byteLength":288,
			"byteOffset":288,
			"target":34962
		},
		{
			"buffer":0,
			"byteLength":192,
			"byteOffset":576,
			"target":34962
		},
		{
			"buffer":0,
			"byteLength":72,
			"byteOffset":768,
			"target":34963
		},
		{
			"buffer":0,
			"byteLength":768,
			"byteOffset":840,
			"target":34962
		},
		{
			"buffer":0,
			"byteLength":768,
			"byteOffset":1608,
			"target":34962
		},
		{
			"buffer":0,
			"byteLength":512,
			"byteOffset":2376,
			"target":34962
		},
		{
			"buffer":0,
			"byteLength":264,
			"byteOffset":2888,
			"target":34963
		},
		{
			"buffer":0,
			"byteLength":124,
			"byteOffset":3152
		},
		{
			"buffer":0,
			"byteLength":372,
			"byteOffset":3276
		}
	],
	"samplers":[
		{
			"magFilter":9729,
			"minFilter":9987
		}
	],
	"buffers":[
		{
			"byteLength":3648,
			"uri":"door.bin"
		}
	]
}
